<?xml version="1.0" encoding="utf-8"?>
<!-- Generator: Adobe Illustrator 25.2.1, SVG Export Plug-In . SVG Version: 6.00 Build 0)  -->
<svg version="1.1" id="Layer_1" xmlns="http://www.w3.org/2000/svg" xmlns:xlink="http://www.w3.org/1999/xlink" x="0px" y="0px"
	 viewBox="0 0 595.3 841.9" style="enable-background:new 0 0 595.3 841.9;" xml:space="preserve">
<style type="text/css">
	.st0{display:none;}
	.st1{fill:#FFFFFF;stroke:#FFFFFF;stroke-width:2;stroke-miterlimit:10;}
	.st2{fill:#FFFFFF;stroke:#FFFFFF;stroke-width:2;stroke-linejoin:round;stroke-miterlimit:10;}
	.st3{fill:#FFFFFF;stroke:#FFFFFF;stroke-width:2;stroke-linecap:round;stroke-linejoin:round;stroke-miterlimit:10;}
	.st4{fill:#FFFFFF;stroke:#FFFFFF;stroke-linecap:round;stroke-miterlimit:10;}
	.st5{fill:#FFFFFF;stroke:#FFFFFF;stroke-miterlimit:10;}
	.st6{fill:#FFFFFF;stroke:#FFFFFF;stroke-linecap:round;stroke-linejoin:round;stroke-miterlimit:10;}
</style>
<g id="picture" class="st0">
</g>
<g id="Layer_1_1_">
	<path class="st1" d="M339.8,356.4H227.6c0,0-5.7-0.1-5.5,5v70.2c0,0-0.1,4.6,5.5,4.6h113.5c0,0,3.9-0.5,3.8-4.6v-70.9
		C344.9,360.7,345.3,356.4,339.8,356.4z"/>
	<path class="st2" d="M231.8,366.6v55.3c0,1,0.9,1.9,1.9,1.9h99.6c1,0,1.9-0.9,1.9-1.9v-55.3c0-1-0.9-1.9-1.9-1.9h-99.6
		C232.7,364.7,231.8,365.6,231.8,366.6z"/>
	<polyline class="st3" points="272.5,442.4 267.6,456.6 299.5,456.6 295.1,442.4 	"/>
	<g>
		<path class="st4" d="M279.7,407.3c-4.9,2-8.3,0.2-8.3,0.2s2.4,0.9,5.1-0.2"/>
		<g>
			<path class="st5" d="M271.4,407.5c0,0,2.6,2.7,6.9,1.2c0,0,4.2-1.2,7.4-5.1c0,0,0.8-0.5,1.8-3.3c0,0-1-0.2-1.9-2.5
				c0,0-3.1-0.4-5.8,2.3c0,0-1,0.9-2.5,4.5C277.2,404.6,275.4,408,271.4,407.5z"/>
			<path class="st6" d="M287.5,400.3c0,0,7.1-3.7,10.8-6.6l16.4-14.5c0,0,3.5-4.3-1.2-3.9c0,0-17.2,10.7-19.2,13.5
				c0,0-7.8,7.3-8.7,9"/>
			<path class="st6" d="M298.2,393.7c0,0-4.6,0-4-4.9"/>
		</g>
	</g>
	<line class="st3" x1="254.7" y1="411.7" x2="283.5" y2="411.7"/>
	<path class="st3" d="M254.7,412"/>
</g>
</svg>
