<svg id="Layer_1" data-name="Layer 1" xmlns="http://www.w3.org/2000/svg" viewBox="0 0 231.01324 150.89999"><defs><style>.cls-1,.cls-2{fill:none;stroke:#f16520;stroke-width:5px;}.cls-1{stroke-miterlimit:10;}.cls-2{stroke-linecap:round;stroke-linejoin:round;}</style></defs><path class="cls-1" d="M29.3,149.4H10a6.487,6.487,0,0,1-6.5-6.5V86.7A6.487,6.487,0,0,1,10,80.2H29.3a6.487,6.487,0,0,1,6.5,6.5v56.2A6.487,6.487,0,0,1,29.3,149.4Z" transform="translate(-1 -1)"/><path class="cls-2" d="M149.4,113.4c.3-.2,5.7-3.9,3.6-12.3-2.1-8.8-19.1-9.9-19.1-9.9L100,84.5c-16-5.6-24.1,1-24.1,1C59.7,66.4,62,41.8,62,41.8,62,20.7,77.9,3.5,97.5,3.5c15.7,0,29,11,33.7,26.2C136,14.5,149.6,3.5,165.6,3.5c20,0,36.3,17.2,36.3,38.3C201.9,41.8,205.2,94.6,149.4,113.4Z" transform="translate(-1 -1)"/><path class="cls-2" d="M97.3,103.7l33.4,8.9c11.3,3.3,16.8,1.6,18.3,1,.6-.2,1.2-.5,1.8-.7l56.2-18a24.43952,24.43952,0,0,1,13.4-.6c6.5,1.6,12.9,6.2,6.4,19.1,0,0,.5,3-14.4,7.7L137,143.2s-9.6,2.6-25.4,1.7a20.74723,20.74723,0,0,1-6.1-1.3l-25.4-8.4a26.17614,26.17614,0,0,0-8.3-1.3l-35.8.3" transform="translate(-1 -1)"/><path class="cls-2" d="M35.8,93.4s24.9,9.9,40.1-7.9" transform="translate(-1 -1)"/></svg>