<?xml version="1.0" encoding="utf-8"?>
<!-- Generator: Adobe Illustrator 25.2.2, SVG Export Plug-In . SVG Version: 6.00 Build 0)  -->
<svg version="1.1" id="Layer_1" xmlns="http://www.w3.org/2000/svg" xmlns:xlink="http://www.w3.org/1999/xlink" x="0px" y="0px"
	 viewBox="0 0 124.8 102.2" style="enable-background:new 0 0 124.8 102.2;" xml:space="preserve">
<style type="text/css">
	.st0{display:none;}
	.st1{fill:#FFFFFF;stroke:#F16520;stroke-width:2;stroke-miterlimit:10;}
	.st2{fill:#FFFFFF;stroke:#F16520;stroke-width:2;stroke-linejoin:round;stroke-miterlimit:10;}
	.st3{fill:#FFFFFF;stroke:#F16520;stroke-width:2;stroke-linecap:round;stroke-linejoin:round;stroke-miterlimit:10;}
	.st4{fill:#FFFFFF;stroke:#F16520;stroke-linecap:round;stroke-miterlimit:10;}
	.st5{fill:#FFFFFF;stroke:#F16520;stroke-miterlimit:10;}
	.st6{fill:#FFFFFF;stroke:#F16520;stroke-linecap:round;stroke-linejoin:round;stroke-miterlimit:10;}
	.st7{fill:none;stroke:#F16520;stroke-width:2;stroke-linecap:round;stroke-linejoin:round;stroke-miterlimit:10;}
</style>
<g id="picture" class="st0">
</g>
<g id="Layer_1_1_">
	<path class="st1" d="M118.7,1H6.5c0,0-5.7-0.1-5.5,5v70.2c0,0-0.1,4.6,5.5,4.6H120c0,0,3.9-0.5,3.8-4.6V5.3
		C123.8,5.3,124.2,1,118.7,1z"/>
	<path class="st2" d="M10.7,11.2v55.3c0,1,0.9,1.9,1.9,1.9h99.6c1,0,1.9-0.9,1.9-1.9V11.2c0-1-0.9-1.9-1.9-1.9H12.6
		C11.6,9.3,10.7,10.2,10.7,11.2z"/>
	<polyline class="st3" points="51.4,87 46.5,101.2 78.4,101.2 74,87 	"/>
	<g>
		<path class="st4" d="M58.6,51.9c-4.9,2-8.3,0.2-8.3,0.2s2.4,0.9,5.1-0.2"/>
		<g>
			<path class="st5" d="M50.3,52.1c0,0,2.6,2.7,6.9,1.2c0,0,4.2-1.2,7.4-5.1c0,0,0.8-0.5,1.8-3.3c0,0-1-0.2-1.9-2.5
				c0,0-3.1-0.4-5.8,2.3c0,0-1,0.9-2.5,4.5C56.1,49.2,54.3,52.6,50.3,52.1z"/>
			<path class="st6" d="M66.4,44.9c0,0,7.1-3.7,10.8-6.6l16.4-14.5c0,0,3.5-4.3-1.2-3.9c0,0-17.2,10.7-19.2,13.5c0,0-7.8,7.3-8.7,9"
				/>
			<path class="st6" d="M77.1,38.3c0,0-4.6,0-4-4.9"/>
		</g>
	</g>
	<line class="st7" x1="33.6" y1="56.3" x2="62.4" y2="56.3"/>
	<path class="st3" d="M33.6,56.6"/>
</g>
</svg>
