<?xml version="1.0" encoding="utf-8"?>
<!-- Generator: Adobe Illustrator 25.2.2, SVG Export Plug-In . SVG Version: 6.00 Build 0)  -->
<svg version="1.1" id="Layer_1" xmlns="http://www.w3.org/2000/svg" xmlns:xlink="http://www.w3.org/1999/xlink" x="0px" y="0px"
	 viewBox="0 0 315.1 248.4" style="enable-background:new 0 0 315.1 248.4;" xml:space="preserve">
<style type="text/css">
	.st0{display:none;}
	.st1{fill:none;stroke:#F16520;stroke-width:7;stroke-miterlimit:10;}
	.st2{fill:none;stroke:#F16520;stroke-width:7;stroke-linejoin:round;stroke-miterlimit:10;}
</style>
<g id="Layer_1_1_" class="st0">
</g>
<g id="Drawing">
	<ellipse class="st1" cx="158.2" cy="227.7" rx="20.9" ry="17.2"/>
	<path class="st2" d="M163.9,211.1c0,0,32.5-27,112.9-30.9V15.3c0,0-55.8-6.4-112.9,31.2V211.1z"/>
	<path class="st2" d="M152.2,211.2V46.7c0,0-51.7-37.3-112.9-31v164C39.3,179.7,110.6,182.4,152.2,211.2z"/>
	<path class="st2" d="M137.3,227.7H3.5V27.2h10.6v189.7l127.2,0.7C99.9,190.5,28.2,191,28.2,191V5.6c72.7-12,129.5,31.3,129.5,31.3
		c68.5-45.6,130-31.1,130-31.1v185.4h-10.4c-70.1,3.5-102.4,25.8-102.4,25.8H301V27.1h10.6v200.6H179.1"/>
</g>
</svg>
