<?xml version="1.0" encoding="utf-8"?>
<!-- Generator: Adobe Illustrator 25.2.2, SVG Export Plug-In . SVG Version: 6.00 Build 0)  -->
<svg version="1.1" id="Layer_1" xmlns="http://www.w3.org/2000/svg" xmlns:xlink="http://www.w3.org/1999/xlink" x="0px" y="0px"
	 viewBox="0 0 228.8 228.6" style="enable-background:new 0 0 228.8 228.6;" xml:space="preserve">
<style type="text/css">
	.st0{display:none;}
	.st1{fill:none;stroke:#F16520;stroke-width:7;stroke-miterlimit:10;}
	.st2{fill:none;stroke:#F16520;stroke-width:7;stroke-linejoin:round;stroke-miterlimit:10;}
	.st3{fill:none;stroke:#F16520;stroke-width:7;stroke-linejoin:round;stroke-miterlimit:9.9996;}
</style>
<g id="Layer_1_1_" class="st0">
</g>
<g id="drawing">
	<path class="st1" d="M207.2,40.2c0,7.5-4.4,14-10.8,17l-25-24.9c3-6.4,9.5-10.8,17-10.8C198.8,21.4,207.2,29.8,207.2,40.2z"/>
	<polygon class="st2" points="62.6,191.8 27.2,201.3 36.7,166 	"/>
	<polygon class="st2" points="52.5,12.7 62.3,3.5 124.5,65.8 115.2,75.1 	"/>
	<polygon class="st2" points="153.3,114.2 163,105 225.3,167.2 215.9,176.6 	"/>
	<polyline class="st2" points="3.4,61.7 45.6,19.4 107.7,81.5 65,124.2 56.6,115.7 69.1,103.1 65.1,99 52.3,111.9 43.1,102.8 
		55.3,90.6 51.6,86.9 39.4,99.1 30.3,90 42.8,77.5 38.9,73.7 26.3,86.4 17.1,77.3 29.3,65.1 25.7,61.5 13.7,73.2 2.5,62 	"/>
	<polyline class="st2" points="104.5,162.6 146.8,120.4 208.9,182.4 166.2,225.1 157.7,216.7 170.3,204.1 166.3,200 153.4,212.9 
		144.3,203.7 156.5,191.6 152.7,187.9 140.6,200.1 131.5,191 143.9,178.5 140.1,174.7 127.4,187.4 118.3,178.2 130.4,166.1 
		126.8,162.5 114.9,174.2 103.7,162.9 	"/>
	
		<rect x="33.8" y="92.7" transform="matrix(0.7071 -0.7071 0.7071 0.7071 -44.549 115.4389)" class="st3" width="166.6" height="37.6"/>
</g>
</svg>
