<?xml version="1.0" encoding="utf-8"?>
<!-- Generator: Adobe Illustrator 25.2.2, SVG Export Plug-In . SVG Version: 6.00 Build 0)  -->
<svg version="1.1" id="Layer_1" xmlns="http://www.w3.org/2000/svg" xmlns:xlink="http://www.w3.org/1999/xlink" x="0px" y="0px"
	 viewBox="0 0 120.8 118.6" style="enable-background:new 0 0 120.8 118.6;" xml:space="preserve">
<style type="text/css">
	.st0{display:none;}
	.st1{fill:#F16520;stroke:#FFFFFF;stroke-width:3;stroke-linecap:round;stroke-linejoin:round;stroke-miterlimit:10;}
</style>
<g id="Picture" class="st0">
</g>
<g id="Drawing">
	<path class="st1" d="M17.7,3L17.7,3c0.4-0.4,0.9-0.6,1.4-0.7c5.7-1.1,39.7-6.2,34.2,33.4c-0.1,0.9,0.2,1.8,0.8,2.4l47.1,46
		c0.4,0.4,0.9,0.7,1.5,0.8c4.1,0.7,21.5,4.7,15.3,24c-0.6,1.8-1.7,3.4-3.1,4.5c-2.6,2.1-7.5,4.5-15.4,3.5c0,0-11.4-1-12.3-15.7
		c0-0.7-0.4-1.3-0.8-1.8L39.7,54c-0.7-0.7-1.6-0.9-2.5-0.7c-7.1,1.4-37.7,5.6-35.6-29.2c0.1-2.4,3-3.5,4.8-1.9l15.2,14.2
		c0.4,0.4,0.9,0.6,1.5,0.7c3.4,0.5,15.1,1.4,11.2-12.5c-0.1-0.4-0.4-0.8-0.7-1.2L17.7,7C16.5,5.9,16.5,4.1,17.7,3z"/>
	<circle class="st1" cx="103.4" cy="101.6" r="6.4"/>
</g>
</svg>
