<?xml version="1.0" encoding="utf-8"?>
<!-- Generator: Adobe Illustrator 25.2.2, SVG Export Plug-In . SVG Version: 6.00 Build 0)  -->
<svg version="1.1" id="Layer_1" xmlns="http://www.w3.org/2000/svg" xmlns:xlink="http://www.w3.org/1999/xlink" x="0px" y="0px"
	 viewBox="0 0 228.8 228.6" style="enable-background:new 0 0 228.8 228.6;" xml:space="preserve">
<style type="text/css">
	.st0{display:none;}
	.st1{fill:none;stroke:#F16520;stroke-width:7;stroke-miterlimit:10;}
	.st2{fill:none;stroke:#F16520;stroke-width:7;stroke-linejoin:round;stroke-miterlimit:10;}
	.st3{fill:none;stroke:#F16520;stroke-width:6.9999;stroke-linejoin:round;stroke-miterlimit:9.9995;}
</style>
<g id="Layer_1_1_" class="st0">
</g>
<path class="st1" d="M202.4,44.2c0,7.1-4.2,13.2-10.2,16.1l-23.6-23.5c2.8-6,9-10.2,16.1-10.2C194.5,26.4,202.4,34.4,202.4,44.2z"/>
<polygon class="st2" points="65.9,187.3 32.5,196.3 41.4,163 "/>
<rect x="38.7" y="93.7" transform="matrix(0.7071 -0.7071 0.7071 0.7071 -44.4696 115.6377)" class="st3" width="157.3" height="35.5"/>
<g>
	<rect x="24.3" y="26" transform="matrix(0.7071 0.7071 -0.7071 0.7071 65.595 -27.2289)" class="st2" width="82.6" height="79.1"/>
	<line class="st2" x1="31.5" y1="64.7" x2="20.2" y2="76"/>
	<line class="st2" x1="43.9" y1="76.1" x2="31.9" y2="88.1"/>
	<line class="st2" x1="54.5" y1="87.3" x2="43" y2="98.8"/>
	<line class="st2" x1="67.3" y1="98.7" x2="55.1" y2="110.8"/>
	<line class="st2" x1="51.8" y1="21" x2="110.2" y2="79.5"/>
</g>
<g>
	
		<rect x="121.8" y="123.5" transform="matrix(0.7071 0.7071 -0.7071 0.7071 163.0636 -67.6017)" class="st2" width="82.6" height="79.1"/>
	<line class="st2" x1="128.9" y1="162.2" x2="117.7" y2="173.5"/>
	<line class="st2" x1="141.3" y1="173.6" x2="129.4" y2="185.6"/>
	<line class="st2" x1="152" y1="184.8" x2="140.5" y2="196.3"/>
	<line class="st2" x1="164.7" y1="196.2" x2="152.6" y2="208.3"/>
	<line class="st2" x1="149.2" y1="118.5" x2="207.7" y2="176.9"/>
</g>
</svg>
