<?xml version="1.0" encoding="utf-8"?>
<!-- Generator: Adobe Illustrator 25.2.2, SVG Export Plug-In . SVG Version: 6.00 Build 0)  -->
<svg version="1.1" id="Layer_1" xmlns="http://www.w3.org/2000/svg" xmlns:xlink="http://www.w3.org/1999/xlink" x="0px" y="0px"
	 viewBox="0 0 87.7 104.8" style="enable-background:new 0 0 87.7 104.8;" xml:space="preserve">
<style type="text/css">
	.st0{fill:#FFFFFF;stroke:#EC6522;stroke-width:3;stroke-miterlimit:10;}
	.st1{fill:#EC6522;stroke:#EC6522;stroke-width:3;stroke-linecap:round;stroke-linejoin:round;}
</style>
<g id="Group_20" transform="translate(-612.668 -2434.916)">
	<path id="Path_12" class="st0" d="M670.5,2470.4c5.8,2,6.2,4.2,6.2,4.2c7-2.2,8.2-4,8.2-4c5.8-4.2,10.2-9.9,12.7-16.5
		c3.7-9.4-2.7-15.1-3-15.4l0,0c1.2,8.9-7.2,13-7.2,13.2c-9,3.3-11.2,5.6-11.2,5.6C669.5,2463.5,670.5,2470.4,670.5,2470.4z"/>
	<path id="Path_14" class="st1" d="M649.2,2488.3l-0.1,0.1l-0.1,0.1c-7.2,4.6-34.7,44-34.7,44c-1,10.8,10,2.8,10,2.8l37.2-37.6"/>
	<path id="Path_13" class="st1" d="M647.3,2490.3c5.8-0.1,11,3.9,12.3,9.5c7.4-8.6,16.9-25,16.9-25s-0.5-2.3-6.4-4.4
		C666.1,2472.3,649.6,2488.1,647.3,2490.3z"/>
</g>
</svg>
