<?xml version="1.0" encoding="utf-8"?>
<!-- Generator: Adobe Illustrator 25.2.1, SVG Export Plug-In . SVG Version: 6.00 Build 0)  -->
<svg version="1.1" xmlns="http://www.w3.org/2000/svg" xmlns:xlink="http://www.w3.org/1999/xlink" x="0px" y="0px"
	 viewBox="0 0 595.28 841.89" style="enable-background:new 0 0 595.28 841.89;" xml:space="preserve">
<style type="text/css">
	.st0{display:none;}
	.st1{fill:none;stroke:#FFFEF9;stroke-width:3;stroke-miterlimit:10;}
	.st2{fill:none;stroke:#FFFEF9;stroke-width:3;stroke-linecap:round;stroke-linejoin:round;stroke-miterlimit:10;}
</style>
<g id="Layer_1" class="st0">
</g>
<g id="Drawing">
	<g>
		<path class="st1" d="M199.29,471.39h-19.3c-3.57,0-6.49-2.92-6.49-6.49v-56.24c0-3.57,2.92-6.49,6.49-6.49h19.3
			c3.57,0,6.49,2.92,6.49,6.49v56.24C205.78,468.47,202.86,471.39,199.29,471.39z"/>
		<path class="st2" d="M319.36,435.38c0.29-0.19,5.67-3.87,3.64-12.34c-2.11-8.8-19.13-9.91-19.13-9.91l-33.91-6.61
			c-16-5.56-24.09,0.96-24.09,0.96c-16.17-19.05-13.83-43.64-13.83-43.64c0-21.18,15.89-38.34,35.48-38.34
			c15.68,0,28.98,10.98,33.67,26.22c4.8-15.24,18.4-26.22,34.42-26.22c20.02,0,36.26,17.16,36.26,38.34
			C371.87,363.84,375.17,416.6,319.36,435.38z"/>
		<path class="st2" d="M267.26,425.74l33.39,8.87c11.3,3.26,16.76,1.62,18.26,0.99c0.6-0.25,1.22-0.46,1.84-0.66l56.17-18.03
			c4.34-1.39,9-1.7,13.42-0.61c6.47,1.58,12.88,6.17,6.38,19.09c0,0,0.52,2.97-14.43,7.66l-75.39,22.09c0,0-9.65,2.59-25.43,1.7
			c-2.1-0.12-4.17-0.57-6.14-1.31l-25.42-8.44c-2.68-0.89-5.49-1.33-8.31-1.31l-35.83,0.31"/>
		<path class="st2" d="M205.78,415.39c0,0,24.87,9.92,40.09-7.91"/>
	</g>
</g>
</svg>
