<?xml version="1.0" encoding="utf-8"?>
<!-- Generator: Adobe Illustrator 25.2.2, SVG Export Plug-In . SVG Version: 6.00 Build 0)  -->
<svg version="1.1" id="Layer_1" xmlns="http://www.w3.org/2000/svg" xmlns:xlink="http://www.w3.org/1999/xlink" x="0px" y="0px"
	 viewBox="0 0 211.2 214.4" style="enable-background:new 0 0 211.2 214.4;" xml:space="preserve">
<style type="text/css">
	.st0{display:none;}
	.st1{fill:none;stroke:#FFFFFF;stroke-width:3;stroke-linecap:round;stroke-linejoin:round;stroke-miterlimit:10;}
</style>
<g id="Layer_1_1_" class="st0">
	
		<image style="display:inline;overflow:visible;enable-background:new    ;" width="229" height="220" xlink:href="CA02AAA4.png"  transform="matrix(1 0 0 1 -10.53 -6.54)">
	</image>
</g>
<g id="Drawing">
	<path class="st1" d="M209.7,34.4v91.8c0,18.1-12.6,32.9-30.7,32.9l0,0v53.9l-53.9-53.9H34.4c-18.1,0-32.9-14.8-32.9-32.9V34.4
		c0-18.1,14.8-32.9,32.9-32.9h142.4C194.9,1.5,209.7,16.3,209.7,34.4z"/>
	<path class="st1" d="M158.9,67.7H49.3c-4,0-7.3-3.3-7.3-7.3l0,0c0-4,3.3-7.3,7.3-7.3h109.6c4,0,7.3,3.3,7.3,7.3l0,0
		C166.2,64.4,162.9,67.7,158.9,67.7z"/>
	<path class="st1" d="M158.9,109.8H49.3c-4,0-7.3-3.3-7.3-7.3l0,0c0-4,3.3-7.3,7.3-7.3h109.6c4,0,7.3,3.3,7.3,7.3l0,0
		C166.2,106.5,162.9,109.8,158.9,109.8z"/>
	<path class="st1" d="M193.8,36.7v87.6c0,11.5-9.4,20.9-20.9,20.9h-10.4v34.9l-34-34.9H35.2c-11.5,0-20.9-9.4-20.9-20.9V36.7
		c0-11.5,9.4-20.9,20.9-20.9H173C184.5,15.9,193.8,25.2,193.8,36.7z"/>
</g>
</svg>
