<?xml version="1.0" encoding="utf-8"?>
<!-- Generator: Adobe Illustrator 25.2.2, SVG Export Plug-In . SVG Version: 6.00 Build 0)  -->
<svg version="1.1" id="Layer_1" xmlns="http://www.w3.org/2000/svg" xmlns:xlink="http://www.w3.org/1999/xlink" x="0px" y="0px"
	 viewBox="0 0 311.2 244.4" style="enable-background:new 0 0 311.2 244.4;" xml:space="preserve">
<style type="text/css">
	.st0{display:none;}
	.st1{fill:none;stroke:#FFFFFF;stroke-width:3;stroke-miterlimit:10;}
	.st2{fill:none;stroke:#FFFFFF;stroke-width:3;stroke-linejoin:round;stroke-miterlimit:10;}
</style>
<g id="Layer_1_1_" class="st0">
	
		<image style="display:inline;overflow:visible;enable-background:new    ;" width="1600" height="1689" xlink:href="E4972BBC.jpeg"  transform="matrix(0.24 0 0 0.24 -36.28 -69.8182)">
	</image>
</g>
<g id="Drawing">
	<ellipse class="st1" cx="156.2" cy="225.7" rx="20.9" ry="17.2"/>
	<path class="st2" d="M161.9,209.1c0,0,32.5-27,112.9-30.9V13.3c0,0-55.8-6.4-112.9,31.2V209.1z"/>
	<path class="st2" d="M150.2,209.2V44.7c0,0-51.7-37.3-112.9-31v164C37.3,177.7,108.6,180.4,150.2,209.2z"/>
	<path class="st2" d="M135.3,225.7H1.5V25.2h10.6v189.7l127.2,0.7C97.9,188.5,26.2,189,26.2,189V3.6c72.7-12,129.5,31.3,129.5,31.3
		c68.5-45.6,130-31.1,130-31.1v185.4h-10.4c-70.1,3.5-102.4,25.8-102.4,25.8H299V25.1h10.6v200.6H177.1"/>
</g>
</svg>
