<?xml version="1.0" encoding="utf-8"?>
<!-- Generator: Adobe Illustrator 25.2.2, SVG Export Plug-In . SVG Version: 6.00 Build 0)  -->
<svg version="1.1" id="Layer_1" xmlns="http://www.w3.org/2000/svg" xmlns:xlink="http://www.w3.org/1999/xlink" x="0px" y="0px"
	 viewBox="0 0 228.9 148.9" style="enable-background:new 0 0 228.9 148.9;" xml:space="preserve">
<style type="text/css">
	.st0{display:none;}
	.st1{fill:none;stroke:#FFFEF9;stroke-width:3;stroke-miterlimit:10;}
	.st2{fill:none;stroke:#FFFEF9;stroke-width:3;stroke-linecap:round;stroke-linejoin:round;stroke-miterlimit:10;}
</style>
<g id="Layer_1_1_" class="st0">
</g>
<g id="Drawing">
	<g>
		<path class="st1" d="M27.3,147.4H8c-3.6,0-6.5-2.9-6.5-6.5V84.7c0-3.6,2.9-6.5,6.5-6.5h19.3c3.6,0,6.5,2.9,6.5,6.5v56.2
			C33.8,144.5,30.9,147.4,27.3,147.4z"/>
		<path class="st2" d="M147.4,111.4c0.3-0.2,5.7-3.9,3.6-12.3c-2.1-8.8-19.1-9.9-19.1-9.9L98,82.5c-16-5.6-24.1,1-24.1,1
			C57.7,64.4,60,39.8,60,39.8C60,18.7,75.9,1.5,95.5,1.5c15.7,0,29,11,33.7,26.2c4.8-15.2,18.4-26.2,34.4-26.2
			c20,0,36.3,17.2,36.3,38.3C199.9,39.8,203.2,92.6,147.4,111.4z"/>
		<path class="st2" d="M95.3,101.7l33.4,8.9c11.3,3.3,16.8,1.6,18.3,1c0.6-0.2,1.2-0.5,1.8-0.7l56.2-18c4.3-1.4,9-1.7,13.4-0.6
			c6.5,1.6,12.9,6.2,6.4,19.1c0,0,0.5,3-14.4,7.7l-75.4,22.1c0,0-9.6,2.6-25.4,1.7c-2.1-0.1-4.2-0.6-6.1-1.3l-25.4-8.4
			c-2.7-0.9-5.5-1.3-8.3-1.3l-35.8,0.3"/>
		<path class="st2" d="M33.8,91.4c0,0,24.9,9.9,40.1-7.9"/>
	</g>
</g>
</svg>
