<?xml version="1.0" encoding="utf-8"?>
<!-- Generator: Adobe Illustrator 25.2.2, SVG Export Plug-In . SVG Version: 6.00 Build 0)  -->
<svg version="1.1" id="Layer_1" xmlns="http://www.w3.org/2000/svg" xmlns:xlink="http://www.w3.org/1999/xlink" x="0px" y="0px"
	 viewBox="0 0 222.4 221.8" style="enable-background:new 0 0 222.4 221.8;" xml:space="preserve">
<style type="text/css">
	.st0{display:none;}
	.st1{fill:none;stroke:#FFFFFF;stroke-width:2;stroke-miterlimit:10;}
	.st2{fill:none;stroke:#FFFFFF;stroke-width:2;stroke-linejoin:round;stroke-miterlimit:10;}
	.st3{fill:none;stroke:#FFFFFF;stroke-width:2;stroke-linejoin:round;stroke-miterlimit:9.9999;}
</style>
<g id="Layer_1_1_" class="st0">
	
		<image style="display:inline;overflow:visible;enable-background:new    ;" width="225" height="225" xlink:href="C1AA5D37.png"  transform="matrix(1 0 0 1 -1.0732 -1.15)">
	</image>
</g>
<g id="drawing">
	<path class="st1" d="M201.3,39.9c0,7.5-4.4,14-10.8,17L165.5,32c3-6.4,9.5-10.8,17-10.8C192.9,21.2,201.3,29.6,201.3,39.9z"/>
	<polygon class="st2" points="66.6,181.7 31.2,191.2 40.7,155.9 	"/>
	<polygon class="st2" points="47.6,10.2 57.4,1 119.6,63.3 110.3,72.6 	"/>
	<polygon class="st2" points="149.4,111.3 159.1,102.1 221.4,164.3 212,173.7 	"/>
	<polyline class="st2" points="1.6,57.4 43.8,15.1 105.9,77.2 63.2,119.9 54.8,111.4 67.3,98.8 63.3,94.7 50.5,107.6 41.3,98.5 
		53.5,86.3 49.8,82.6 37.6,94.8 28.5,85.7 41,73.2 37.1,69.4 24.5,82.1 15.3,73 27.5,60.8 23.9,57.2 11.9,68.9 0.7,57.7 	"/>
	<polyline class="st2" points="102.7,158.3 145,116.1 207.1,178.1 164.4,220.8 155.9,212.4 168.5,199.8 164.5,195.7 151.6,208.6 
		142.5,199.4 154.7,187.3 150.9,183.6 138.8,195.8 129.7,186.7 142.1,174.2 138.3,170.4 125.6,183.1 116.5,173.9 128.6,161.8 
		125,158.2 113.1,169.9 101.9,158.6 	"/>
	
		<rect x="32" y="88.4" transform="matrix(0.7071 -0.7071 0.7071 0.7071 -41.9994 112.9079)" class="st3" width="166.6" height="37.6"/>
</g>
</svg>
