<?xml version="1.0" encoding="utf-8"?>
<!-- Generator: Adobe Illustrator 25.2.2, SVG Export Plug-In . SVG Version: 6.00 Build 0)  -->
<svg version="1.1" id="Layer_1" xmlns="http://www.w3.org/2000/svg" xmlns:xlink="http://www.w3.org/1999/xlink" x="0px" y="0px"
	 viewBox="0 0 207.9 129.6" style="enable-background:new 0 0 207.9 129.6;" xml:space="preserve">
<style type="text/css">
	.st0{display:none;}
	.st1{fill:#FFFFFF;stroke:#FFFFFF;stroke-width:3;stroke-miterlimit:10;}
	.st2{fill:#FFFFFF;stroke:#FFFFFF;stroke-miterlimit:10;}
</style>
<g id="Layer_1_1_" class="st0">
</g>
<g id="Layer_2_1_">
	<path class="st1" d="M206.4,98.2c0,16.5-14.6,29.9-32.7,29.9H37.5c-19.9,0-36-17-36-37.9s16.1-37.9,36-37.9c0.5,0,1,0,1.6,0l0,0
		C42.6,23.8,71,1.5,105.4,1.5C142.2,1.5,172,27,172,58.4c0,3.4-0.4,6.8-1,10c0.9-0.1,1.8-0.1,2.8-0.1
		C191.7,68.3,206.4,81.7,206.4,98.2z"/>
	<path class="st2" d="M146,64.9c0-1.4-0.1-2.7-0.2-4.1l9.9-6.8c-0.5-2.5-1.2-5-2.1-7.4L142,46.9c-1.9-4-4.3-7.6-7.3-10.8l4-11.2
		c-1.8-1.6-3.7-3-5.7-4.3l-9.2,7.1c-4-2.2-8.5-3.7-13.1-4.4l-3.3-11.2c-1.1-0.1-2.3-0.1-3.5-0.1s-2.3,0-3.5,0.1l-3.3,11.2
		c-4.7,0.8-9.1,2.3-13.1,4.4l-9.2-7.1c-2,1.3-3.9,2.8-5.7,4.3l4,11.2c-2.9,3.2-5.4,6.8-7.3,10.8l-11.6-0.3c-0.9,2.4-1.6,4.9-2.1,7.4
		l9.9,6.8c-0.1,1.3-0.2,2.7-0.2,4.1c0,2.6,0.2,5.1,0.7,7.5L52.9,79c0.8,2.7,1.7,5.4,2.9,7.9l12-0.3c1.8,2.9,3.9,5.6,6.3,8l-3.9,11
		c2.3,1.9,4.8,3.6,7.4,5.1l9.5-7.3c2.8,1.2,5.8,2.2,8.9,2.8l3.3,11.4c1.5,0.1,3.1,0.2,4.6,0.2c1.6,0,3.1-0.1,4.6-0.2l3.4-11.4
		c3.1-0.6,6.1-1.5,8.9-2.8l9.5,7.3c2.6-1.5,5.1-3.2,7.4-5.1l-3.9-11c2.4-2.4,4.5-5.1,6.3-8l12,0.3c1.2-2.5,2.1-5.2,2.9-7.9l-9.6-6.6
		C145.8,70,146,67.4,146,64.9z M103.9,93.2c-15.6,0-28.3-12.7-28.3-28.3s12.7-28.3,28.3-28.3c15.7,0,28.4,12.7,28.4,28.3
		S119.6,93.2,103.9,93.2z"/>
</g>
</svg>
