<svg id="Layer_1" data-name="Layer 1" xmlns="http://www.w3.org/2000/svg" viewBox="0 0 364.83 108.04"><defs><style>.cls-1{fill:#f26522;}.cls-2{fill:#f7941d;}.cls-3{fill:#f68821;}.cls-4{fill:#fdbd68;}.cls-5{fill:#871719;}.cls-6{fill:#a7a9ac;}.cls-7{fill:#d1d3d4;}.cls-8{fill:#6d6e71;}.cls-9{fill:#db4726;}</style></defs><path class="cls-1" d="M420.38,398a5.47,5.47,0,0,1-5.77,5.87h-4.53V392.28h4.53A5.45,5.45,0,0,1,420.38,398Zm-8.14,3.78h2.37a3.7,3.7,0,0,0,0-7.39h-2.37Z" transform="translate(-177.59 -301.12)"/><path class="cls-1" d="M431.75,403.82h-8.64V392.28h8.64v2.11h-6.48V397h6.25v2h-6.25v2.61h6.48Z" transform="translate(-177.59 -301.12)"/><path class="cls-1" d="M442.22,395.06a3.31,3.31,0,0,0-2.73-1.28c-1.62,0-2.4.68-2.4,1.53,0,1,1.19,1.29,2.58,1.45,2.41.3,4.65.93,4.65,3.68,0,2.58-2.28,3.68-4.85,3.68-2.36,0-4.17-.73-5-2.84l1.81-.94a3.29,3.29,0,0,0,3.25,1.83c1.37,0,2.66-.47,2.66-1.73,0-1.09-1.14-1.53-2.67-1.7-2.36-.28-4.54-.9-4.54-3.49,0-2.38,2.34-3.35,4.47-3.37,1.8,0,3.66.51,4.54,2.29Z" transform="translate(-177.59 -301.12)"/><path class="cls-1" d="M447.34,403.82V392.28h2.16v11.54Z" transform="translate(-177.59 -301.12)"/><path class="cls-1" d="M461.44,395.1a4.43,4.43,0,0,0-2.94-1.16,3.94,3.94,0,0,0-4,4.26,3.65,3.65,0,0,0,4,3.86,3.84,3.84,0,0,0,2.61-.93v-2h-2.95v-1.95h4.95V402a5.78,5.78,0,0,1-4.61,2.08c-4.33,0-6.1-2.86-6.1-5.89,0-3.25,2-6.25,6.1-6.25a6.09,6.09,0,0,1,4.29,1.76Z" transform="translate(-177.59 -301.12)"/><path class="cls-1" d="M473.8,392.26H476v11.56h-1.35v0l-6.07-7.8v7.78h-2.18V392.28h1.77l5.66,7.16Z" transform="translate(-177.59 -301.12)"/><polygon class="cls-2" points="37.54 13.67 31.14 25.75 65.01 43.1 37.54 13.67"/><polygon class="cls-2" points="31.14 25.75 81.32 83.75 96.25 75.97 31.14 25.75"/><polygon class="cls-1" points="109.41 69.1 65.01 43.1 31.14 25.75 96.25 75.97 109.41 69.1"/><polygon class="cls-3" points="96.25 75.97 96.25 75.97 111.17 79.99 109.41 69.1 96.25 75.97"/><polygon class="cls-4" points="81.32 83.75 31.14 25.75 31.14 71.48 81.32 83.75"/><polygon class="cls-1" points="31.14 71.48 31.14 25.75 1.29 64.18 31.14 71.48"/><polygon class="cls-1" points="31.14 71.48 5.06 83.5 39.68 83.25 81.32 83.75 31.14 71.48"/><path class="cls-5" d="M391,374c-2.67,5.2-6.91,10.61-11.84,10.61-3.7,0-5.14-3.29-5.14-6.51a30.31,30.31,0,0,1,2.19-9.86l3.63-9.79c.82-2.19,1.78-5.68,1.3-7.73,0-.14-.07-.34.21-.34,5,0,4.31,4.31,2.94,8.14l-4.11,11.16c-.68,1.92-3.69,10.82,0,10.75s8.22-8.15,10.27-12.66c.07-.14.14-.28.28-.28.89,0,1.23,1.51,1.3,2.12A8.53,8.53,0,0,1,391,374Zm-8.42-28.14c.27-1.92,1.64-3.43,3.15-3.43s2.4,1.51,2.19,3.43-1.71,3.42-3.22,3.42S382.3,347.74,382.57,345.83Z" transform="translate(-177.59 -301.12)"/><path class="cls-5" d="M389.14,375.13c0-6.85,3.84-14.86,8.56-19.72,2.94-3.08,6.37-5.06,9.45-5.06a6.43,6.43,0,0,1,5.13,2.46,7.91,7.91,0,0,0-.13-2.19c0-.14,0-.27.2-.27,6,0,3.7,7.32,2.81,10.33-2.33,7.88-5,15.55-7.81,23.21a30,30,0,0,0,7.53-4.86c4-3.49,5.55-6.57,7.67-11.29.07-.14.14-.28.28-.28.89,0,1.23,1.51,1.3,2.19.27,3-2.6,7.4-4.38,9.45-3.7,4.25-9,7.4-14.25,9.86L403,395.74c-1.71,5.54-6.64,13.42-13.83,13.42-5.89,0-9.11-5.07-7.33-10.41a14.61,14.61,0,0,1,6.37-7.26c4.11-2.39,9.31-3.83,13.83-5.47q.82-2.26,1.64-4.52C396.67,387.25,389.14,384.78,389.14,375.13Zm9.79,19.72,1.3-3.7c-4.45,1.71-12.46,3.7-14.24,8.77-1,2.94.48,5.61,3.84,5.06C394.55,404.3,397.43,398.89,398.93,394.85Zm-5.54-19.72c0,7.6,5.34,5.75,9.44,1.44,3.91-4,7.33-11,7.33-16.78,0-7.87-5.68-5.27-9.45-1.43C396.81,362.46,393.39,369.38,393.39,375.13Z" transform="translate(-177.59 -301.12)"/><path class="cls-5" d="M424.13,363.15c3.35-9.45,7.32-19.65,9.86-29.3a18.15,18.15,0,0,0,.54-6.78c-.06-.14,0-.28.14-.28,5,0,4.25,5.14,3.29,8.56-1.58,6.16-4.11,13.22-6.3,19.24,2.67-2.53,5.68-4.24,8.76-4.24,4,0,5.34,2.46,5.34,5.61s-3.15,10.27-4.38,13.69c-.68,1.92-3.76,10.82-.07,10.75,3.9-.07,8.22-8.15,10.27-12.66.07-.14.21-.28.34-.28.83,0,1.24,1.51,1.31,2.12a9.34,9.34,0,0,1-1.1,4.39c-2.6,5.2-6.92,10.61-11.78,10.61-3.76,0-5.13-3.29-5.13-6.51a30,30,0,0,1,2.19-9.86c.55-1.5,2.26-5.81,3.29-9,1.16-3.63.54-5.28-1.44-4.8-9.31,2.19-14.24,18.49-17.32,27-.62,1.71-.69,2.81-.41,3.15h-5.76C416.8,383.69,421.32,371.09,424.13,363.15Z" transform="translate(-177.59 -301.12)"/><path class="cls-5" d="M463.65,327.06c0-.13,0-.27.13-.27,5,0,4.25,5.13,3.36,8.56q-1,4-2.47,8.21a9.28,9.28,0,0,0,4-.41c.14-.06.35-.13.35.07.82,4.25-2.61,4.52-5.69,4.18-2.53,7.53-5.61,15.33-8.08,22.25-.68,1.92-3.76,10.82-.07,10.75,3.91-.07,8.22-8.15,10.27-12.67a.47.47,0,0,1,.35-.27c.82,0,1.23,1.51,1.3,2.12A9.34,9.34,0,0,1,466,374c-2.6,5.2-6.91,10.61-11.78,10.61-3.76,0-5.13-3.29-5.13-6.51a30.31,30.31,0,0,1,2.19-9.86c2.53-7,5.34-14.17,7.81-21.36a9.57,9.57,0,0,0-4.52.41c-.14.07-.35.14-.35-.07-.82-4.31,3-4.58,6.17-4.17,1-3,1.91-6.1,2.67-9.18A18.17,18.17,0,0,0,463.65,327.06Z" transform="translate(-177.59 -301.12)"/><path class="cls-5" d="M495.76,367.46c1,0,1.37,1.71,1.37,2.46.2,6-5.41,12.33-12.4,12.33a8.28,8.28,0,0,1-4.93-1.58c-2.74,2.47-5.61,3.91-8.35,3.91-5.2,0-7.26-4.86-7.26-9.45,0-6.85,3.91-14.93,8.56-19.79,3-3.08,6.37-5,9.52-5,5.2,0,7.26,4.93,7.26,9.45,0,5.89-2.88,12.74-6.71,17.6a5.4,5.4,0,0,0,2.6.61c6-.2,8.49-6,10-10.27C495.49,367.6,495.62,367.46,495.76,367.46Zm-27.32,7.67c0,7.26,4.86,5.89,8.9,2a6.47,6.47,0,0,1,1.23-6.16,4.6,4.6,0,0,1,4.18-1.44,23.56,23.56,0,0,0,2.46-9.72c0-7.87-5.54-5.48-9.38-1.44S468.44,369.31,468.44,375.13Z" transform="translate(-177.59 -301.12)"/><path class="cls-5" d="M514.65,382.25a7,7,0,0,1-4.93-1.58c-2.74,2.47-5.68,3.91-8.35,3.91a6.53,6.53,0,0,1-6.1-3.91L486.51,405c-.68,1.71-.75,2.81-.48,3.15h-5.75c1.1-.89,5.55-13.49,8.35-21.5,3.36-9.38,7.4-19.58,9.86-29.3a17.81,17.81,0,0,0,.55-6.71c-.07-.21,0-.28.14-.28,3.22,0,4,2.12,4,4.52,2.87-2.81,6.09-4.52,9-4.52,5.2,0,7.26,4.93,7.26,9.45,0,6-3,12.74-6.71,17.67a5.27,5.27,0,0,0,2.53.54s10.38-.42,18.93-17.51,3.42-44.17-23.51-46.6-58.27,7.7-81.07,12.26-57,10.26-65.5-14a2.33,2.33,0,0,1,.92-2.77c1.58-.87,3.17-.09,3.95,1.54,0,0,4.62,12.13,20.12,14.31s34.86-2.38,47.77-5.66,55.42-13.51,75.69-10.43,31.28,18.77,29.69,36.75S527.07,380.78,514.65,382.25Zm-16.29-7.12c0,7.53,5.13,5.61,8.83,2.05a6.66,6.66,0,0,1,1.23-6.16,4.65,4.65,0,0,1,4.18-1.51,22.4,22.4,0,0,0,2.53-9.72c0-7.6-5.27-5.75-9.38-1.44C501.78,362.46,498.36,369.38,498.36,375.13Z" transform="translate(-177.59 -301.12)"/><path class="cls-5" d="M364.12,358.53s2.15.42,7.28-3.77c3.7-3,7-5,10.05-4.78a4.13,4.13,0,0,1,2.91,1.33l-4.31,6.5a10.4,10.4,0,0,0,.56-2.09c.13-.9-.21-2.48-2.36-1.74a12.51,12.51,0,0,0-3.12,2c-1.82,1.42-5.91,5.68-10.9,7.16l2.93-5Z" transform="translate(-177.59 -301.12)"/><path class="cls-5" d="M223.3,342.64l.22,0c1.79.21,2,2.33,2.09,3.47l0,.24a3,3,0,0,0,.69-1.91,3.06,3.06,0,1,0-6.12,0,3,3,0,0,0,.44,1.54C221.17,343.81,222.08,342.64,223.3,342.64Z" transform="translate(-177.59 -301.12)"/><polygon class="cls-6" points="93.34 96.57 81.32 83.75 39.68 83.25 5.06 83.5 5.06 96.57 5.06 96.57 93.34 96.57"/><polygon class="cls-6" points="136.55 84.58 136.55 75.46 114.91 92.64 136.55 84.58"/><polygon class="cls-7" points="93.34 96.57 114.91 92.64 81.32 83.75 93.34 96.57"/><polygon class="cls-7" points="111.17 79.99 114.91 92.64 136.55 75.46 133.5 72.21 111.17 79.99"/><polygon class="cls-6" points="81.32 83.75 114.91 92.64 111.17 79.99 81.32 83.75"/><polygon class="cls-6" points="5.06 96.57 5.06 94.58 0 93.31 1.29 95.57 5.06 96.57"/><polygon class="cls-7" points="0 93.31 5.06 94.58 5.06 86.14 0 82.45 0 93.31"/><polygon class="cls-6" points="1.29 80.74 0 82.45 5.06 86.14 5.06 83.5 1.29 80.74"/><polygon class="cls-8" points="129.34 68.67 112.03 68.52 114.09 70.54 129.34 68.67"/><polygon class="cls-6" points="129.34 68.67 114.09 70.54 116.76 78.04 133.5 72.21 129.34 68.67"/><polygon class="cls-4" points="109.76 71.28 111.17 79.99 116.76 78.04 114.09 70.54 109.76 71.28"/><polygon class="cls-9" points="112.03 68.52 109.41 69.1 109.76 71.28 114.09 70.54 112.03 68.52"/><polygon class="cls-1" points="6.31 24.05 9.32 43.61 15.86 28.51 6.31 24.05"/><polygon class="cls-9" points="96.25 75.97 81.32 83.75 111.17 79.99 96.25 75.97 96.25 75.97"/><path class="cls-5" d="M243.2,344.57a48.37,48.37,0,0,0-13.86,6.72,4.38,4.38,0,0,1,1.08-1.12,2.31,2.31,0,0,0-2.44,1,2.86,2.86,0,0,0,1.89,4.23c2,.46,3.5-.69,3.59-2.22a99.63,99.63,0,0,1,13.79-6.23Zm-13.8,9a1.14,1.14,0,0,1-.05-1.64l1.64.25.15,1.69A1.52,1.52,0,0,1,229.4,353.57ZM271,360.85a50.21,50.21,0,0,0-5.41,7.59,4.33,4.33,0,0,1,.51-1.47,2.32,2.32,0,0,0-1.79,1.93,2.85,2.85,0,0,0,3.5,3c2.05-.45,2.87-2.11,2.31-3.53,0,0,1.86-2.55,4.34-5.53Zm-4.39,9.63a1.13,1.13,0,0,1-.74-1.46l1.59-.47.85,1.47A1.52,1.52,0,0,1,266.6,370.48ZM252,349.73l-1.34.29a48.06,48.06,0,0,0-13.85,6.72,4.38,4.38,0,0,1,1.08-1.12,2.31,2.31,0,0,0-2.44,1,2.85,2.85,0,0,0,1.88,4.23c2,.46,3.5-.69,3.6-2.22,0,0,8.89-4.88,15-6.59ZM236.88,359a1.13,1.13,0,0,1,0-1.64l1.64.25.14,1.69A1.51,1.51,0,0,1,236.88,359Zm30.68-.18L264,356.77a50.49,50.49,0,0,0-8.63,8.51,4.29,4.29,0,0,1,.72-1.38,2.3,2.3,0,0,0-2.05,1.64,2.84,2.84,0,0,0,3,3.51c2.1-.14,3.16-1.67,2.81-3.15C259.89,365.9,263.53,362.19,267.56,358.84Zm-11.45,8.6a1.13,1.13,0,0,1-.51-1.55l1.64-.24.63,1.58A1.53,1.53,0,0,1,256.11,367.44Zm25.41-.42-3.4-2a46.66,46.66,0,0,0-2.13,4.63,4.22,4.22,0,0,1,.29-1.53,2.31,2.31,0,0,0-1.49,2.17,2.85,2.85,0,0,0,3.9,2.49c2-.74,2.54-2.5,1.77-3.83C280.46,369,280.86,368.19,281.52,367Zm-4.22,4.5a1.13,1.13,0,0,1-.95-1.34l1.51-.7,1.05,1.33A1.5,1.5,0,0,1,277.3,371.52ZM258.1,353.3a49.42,49.42,0,0,0-12.23,8.44,4.25,4.25,0,0,1,.91-1.26,2.3,2.3,0,0,0-2.27,1.33,2.85,2.85,0,0,0,2.47,3.91c2.1.16,3.37-1.19,3.24-2.72a106.11,106.11,0,0,1,11.55-7.55ZM246.26,364a1.14,1.14,0,0,1-.29-1.62h1.66L248,364A1.51,1.51,0,0,1,246.26,364Z" transform="translate(-177.59 -301.12)"/><polygon class="cls-2" points="15.86 28.51 9.32 43.61 1.29 64.18 31.14 25.75 15.86 28.51"/><polygon class="cls-2" points="31.14 71.48 1.29 64.18 1.29 80.74 31.14 71.48 31.14 71.48"/><polygon class="cls-4" points="1.29 80.74 5.06 83.5 31.14 71.48 1.29 80.74"/><path class="cls-5" d="M379.81,331.21s-3.92-1.53-6.22,4.63q-3.73,10.43-7.49,20.87c-2.88,5.48-17.94,1.16-23.76.27L348,341.37s5.3-16.86-6-23.05a16.94,16.94,0,0,0-8.81-2.28c-10.4,0-18.62,7.8-21.36,17.39,0,0-3.56,10.8.61,19.93,4.45,9.73,11.9,8.81,16,7.48,2.49-.81,5.32-.5,8.12-.3-.89,2.47-1.71,4.93-2.6,7.33-2.65,7.26-6.44,15.37-12.07,21.16,0,0-8.53,9.54-28.44,13.72-18.89,3.95-53.19,1.91-63.93-7.16s-9.39-20.78-7-30.89c1.53-6.54,2.42-14.25,2.42-14.25a27.11,27.11,0,0,0,.18-4c-.1-1-.17-3-1.59-3.2s-2.17,2-2.51,4.26-1.42,11.71-3.59,20.75-2.44,33.41,28,38.69c25.12,4.37,62.6,3.3,80-15.18,5.88-6.24,9.86-14.95,12.53-22.46,1-2.74,2-5.48,3-8.29,6.64,1,16.64,3.77,22.8,2.33-2.12,5.82-4.17,11.64-6.3,17.53-2,5.55-3.83,10.48-4.65,11.16h5.75c-.27-.34-.14-1.44.48-3.15C365.92,369.62,372.86,350.47,379.81,331.21ZM338,356.37c-3.06-.31-6.22-1-9-.07-6.2,2-11.48.68-13.39-7.28a29,29,0,0,1,.26-14.43c2.26-7.8,8.77-14.57,17.25-14.24,16.91.67,10.68,20,10.68,20C341.91,345.71,340,351.06,338,356.37Z" transform="translate(-177.59 -301.12)"/><path class="cls-5" d="M364.72,310.4l-3.79-7.9a1,1,0,0,1,.19-1.14.92.92,0,0,1,1.47.3l3.89,7.88Z" transform="translate(-177.59 -301.12)"/></svg>